<svg width="20" height="20" viewBox="0 0 20 20" fill="none" xmlns="http://www.w3.org/2000/svg">
<path d="M6.2 5H3.8C3.35817 5 3 5.24873 3 5.55556V14.4444C3 14.7513 3.35817 15 3.8 15H6.2C6.64183 15 7 14.7513 7 14.4444V5.55556C7 5.24873 6.64183 5 6.2 5Z" stroke="#757575" stroke-width="1.5" stroke-linecap="round" stroke-linejoin="round"/>
<path d="M16.2 5H13.8C13.3582 5 13 5.24873 13 5.55556V14.4444C13 14.7513 13.3582 15 13.8 15H16.2C16.6418 15 17 14.7513 17 14.4444V5.55556C17 5.24873 16.6418 5 16.2 5Z" stroke="#757575" stroke-width="1.5" stroke-linecap="round" stroke-linejoin="round"/>
<path d="M7.72729 10H12.2727" stroke="#757575" stroke-width="1.5" stroke-linecap="round" stroke-linejoin="round"/>
<path d="M17.3864 10H18.5227" stroke="#757575" stroke-width="1.5" stroke-linecap="round" stroke-linejoin="round"/>
<path d="M1.47729 10H2.61366" stroke="#757575" stroke-width="1.5" stroke-linecap="round" stroke-linejoin="round"/>
</svg>
