<svg width="140" height="28" viewBox="0 0 140 28" fill="none" xmlns="http://www.w3.org/2000/svg">
<path d="M14.1772 0C6.34685 0 0 6.26751 0 14C0 21.7325 6.34685 28 14.1772 28C22.0076 28 28.3544 21.7325 28.3544 14C28.3544 6.26751 22.0062 0 14.1772 0ZM2.03524 13.3153C2.03524 11.4467 2.44529 9.67368 3.17956 8.07687C2.73409 9.63063 2.76542 11.3593 3.54873 13.1538C5.8755 18.4837 11.3655 18.851 15.0872 21.7002C17.2369 23.3454 17.0543 24.8817 16.5162 25.8866C15.9768 25.9552 15.4278 25.9902 14.8693 25.9902C7.78133 25.9902 2.03388 20.3159 2.03388 13.3153H2.03524ZM20.8279 24.5441C21.9953 23.2459 22.261 21.4984 20.8565 19.2841C17.9657 14.7264 10.529 12.7785 7.57971 7.98808C6.93399 6.94014 6.73646 5.04872 7.16285 4.0613C7.50342 3.27299 8.1396 2.64072 8.62049 2.24387C10.4705 1.22283 12.6011 0.641683 14.8706 0.641683C21.9585 0.641683 27.706 6.31594 27.706 13.3166C27.706 18.1931 24.916 22.4253 20.8279 24.5454V24.5441Z" fill="#4BAD3B"/>
<path d="M16.2383 6.12628C14.6554 6.12628 13.3707 7.39351 13.3707 8.95803C13.3707 10.5226 14.6554 11.7898 16.2383 11.7898C17.8213 11.7898 19.1059 10.5226 19.1059 8.95803C19.1059 7.39351 17.8213 6.12628 16.2383 6.12628ZM15.2207 9.18269C14.59 9.18269 14.0777 8.67687 14.0777 8.05402C14.0777 7.43117 14.59 6.92536 15.2207 6.92536C15.8514 6.92536 16.365 7.42983 16.365 8.05402C16.365 8.67822 15.8528 9.18269 15.2207 9.18269Z" fill="#4BAD3B"/>
<path d="M24.1259 13.2938C23.4448 15.9493 21.5485 16.9918 21.4668 19.1106C21.4368 19.0622 21.4068 19.0124 21.3741 18.9626C20.8496 18.1367 20.1862 17.3954 19.4356 16.708C19.1631 16.4591 19.0174 16.0959 19.0705 15.7313C19.0705 15.7287 19.0705 15.7273 19.0705 15.7246C19.3852 13.618 23.4094 10.8387 23.2595 8.86655C23.2595 8.86655 24.8398 10.5024 24.1246 13.2924L24.1259 13.2938Z" fill="#4BAD3B"/>
<path d="M135.497 9.625C136.302 9.625 136.965 9.72076 137.487 9.91228C138.013 10.1038 138.404 10.3931 138.659 10.7801C138.914 11.1671 139.041 11.6559 139.041 12.2464C139.041 12.6454 138.964 12.9945 138.81 13.2938C138.657 13.593 138.454 13.8464 138.204 14.0539C137.953 14.2613 137.682 14.4309 137.39 14.5626L140 18.375H137.912L135.794 15.0174H134.793V18.375H132.911V9.625H135.497ZM135.363 11.1452H134.793V13.5092H135.4C136.023 13.5092 136.468 13.4075 136.735 13.204C137.006 12.9965 137.141 12.6933 137.141 12.2943C137.141 11.8793 136.996 11.5841 136.705 11.4085C136.417 11.233 135.97 11.1452 135.363 11.1452Z" fill="#4BAD3B"/>
<path d="M131.139 18.375H125.823V9.625H131.139V11.1452H127.78V13.0663H130.906V14.5865H127.78V16.8429H131.139V18.375Z" fill="#4BAD3B"/>
<path d="M122.388 18.375H120.397V11.1691H117.848V9.625H124.937V11.1691H122.388V18.375Z" fill="#4BAD3B"/>
<path d="M116.962 18.375H114.539L110.629 11.7556H110.574C110.59 12.031 110.604 12.3083 110.617 12.5876C110.629 12.8668 110.641 13.1461 110.654 13.4254C110.666 13.7008 110.678 13.9781 110.69 14.2574V18.375H108.987V9.625H111.391L115.296 16.1785H115.339C115.331 15.9072 115.32 15.6379 115.308 15.3706C115.296 15.1032 115.283 14.8359 115.271 14.5686C115.263 14.3012 115.255 14.0339 115.247 13.7666V9.625H116.962V18.375Z" fill="#4BAD3B"/>
<path d="M107.215 18.375H101.899V9.625H107.215V11.1452H103.856V13.0663H106.982V14.5865H103.856V16.8429H107.215V18.375Z" fill="#4BAD3B"/>
<path d="M98.2892 11.127C97.9116 11.127 97.5765 11.1949 97.2838 11.3308C96.9953 11.4627 96.7514 11.6548 96.552 11.9071C96.3569 12.1594 96.2084 12.464 96.1066 12.8211C96.0048 13.1782 95.9539 13.5799 95.9539 14.0262C95.9539 14.6278 96.0345 15.142 96.1957 15.5689C96.3611 15.992 96.6156 16.3161 96.9593 16.5412C97.3029 16.7624 97.7462 16.873 98.2892 16.873C98.6667 16.873 99.0443 16.8342 99.4218 16.7566C99.8036 16.6789 100.217 16.5683 100.663 16.4247V17.9384C100.251 18.0936 99.846 18.2042 99.4473 18.2702C99.0485 18.3401 98.601 18.375 98.1046 18.375C97.1459 18.375 96.3569 18.1945 95.7375 17.8336C95.1224 17.4688 94.6664 16.9603 94.3694 16.3083C94.0725 15.6524 93.924 14.8878 93.924 14.0146C93.924 13.3703 94.0195 12.7804 94.2104 12.2448C94.4013 11.7092 94.6812 11.2454 95.0503 10.8534C95.4194 10.4614 95.8754 10.1587 96.4184 9.94519C96.9614 9.73173 97.585 9.625 98.2892 9.625C98.7516 9.625 99.214 9.67934 99.6763 9.78801C100.143 9.8928 100.588 10.0383 101.013 10.2246L100.376 11.6917C100.028 11.5403 99.6785 11.4084 99.3264 11.2958C98.9743 11.1833 98.6285 11.127 98.2892 11.127Z" fill="#4BAD3B"/>
<path d="M84.1772 18.375V9.625H86.0023V16.8429H89.4936V18.375H84.1772Z" fill="#4BAD3B"/>
<path d="M81.1966 18.375L80.5319 16.3008H77.1895L76.5248 18.375H74.4304L77.6661 9.625H80.0428L83.2911 18.375H81.1966ZM80.0679 14.751L79.4032 12.7245C79.3614 12.5894 79.3049 12.4165 79.2339 12.2059C79.167 11.9913 79.098 11.7748 79.0269 11.5562C78.96 11.3337 78.9057 11.141 78.8639 10.978C78.8221 11.141 78.7635 11.3436 78.6883 11.586C78.6172 11.8244 78.5482 12.0509 78.4814 12.2655C78.4145 12.4801 78.3664 12.6331 78.3371 12.7245L77.6787 14.751H80.0679Z" fill="#4BAD3B"/>
<path d="M71.7069 11.127C71.3293 11.127 70.9942 11.1949 70.7015 11.3308C70.413 11.4627 70.1691 11.6548 69.9697 11.9071C69.7746 12.1594 69.6261 12.464 69.5243 12.8211C69.4225 13.1782 69.3716 13.5799 69.3716 14.0262C69.3716 14.6278 69.4522 15.142 69.6134 15.5689C69.7788 15.992 70.0334 16.3161 70.377 16.5412C70.7206 16.7624 71.1639 16.873 71.7069 16.873C72.0844 16.873 72.462 16.8342 72.8395 16.7566C73.2213 16.6789 73.6349 16.5683 74.0804 16.4247V17.9384C73.6689 18.0936 73.2638 18.2042 72.865 18.2702C72.4662 18.3401 72.0187 18.375 71.5224 18.375C70.5636 18.375 69.7746 18.1945 69.1552 17.8336C68.5401 17.4688 68.0841 16.9603 67.7872 16.3083C67.4902 15.6524 67.3417 14.8878 67.3417 14.0146C67.3417 13.3703 67.4372 12.7804 67.6281 12.2448C67.819 11.7092 68.099 11.2454 68.468 10.8534C68.8371 10.4614 69.2931 10.1587 69.8361 9.94519C70.3791 9.73173 71.0027 9.625 71.7069 9.625C72.1693 9.625 72.6317 9.67934 73.0941 9.78801C73.5607 9.8928 74.0061 10.0383 74.4303 10.2246L73.794 11.6917C73.4462 11.5403 73.0962 11.4084 72.7441 11.2958C72.392 11.1833 72.0463 11.127 71.7069 11.127Z" fill="#4BAD3B"/>
<path d="M62.9114 18.375V9.625H64.6835V18.375H62.9114Z" fill="#4BAD3B"/>
<path d="M61.1392 13.9162C61.1392 14.9017 60.9541 15.7257 60.584 16.388C60.2178 17.0463 59.686 17.5431 58.9887 17.8783C58.2913 18.2094 57.4517 18.375 56.47 18.375H54.0506V9.625H56.7329C57.629 9.625 58.4062 9.78859 59.0646 10.1158C59.723 10.439 60.2334 10.9197 60.5957 11.5581C60.958 12.1925 61.1392 12.9786 61.1392 13.9162ZM59.2575 13.9641C59.2575 13.3177 59.164 12.7871 58.977 12.3721C58.7939 11.9531 58.5212 11.6439 58.1588 11.4444C57.8004 11.2449 57.3563 11.1452 56.8264 11.1452H55.8622V16.8429H56.6394C57.5238 16.8429 58.1803 16.6015 58.6088 16.1187C59.0413 15.6359 59.2575 14.9177 59.2575 13.9641Z" fill="#4BAD3B"/>
<path d="M52.2785 18.375H46.962V9.625H52.2785V11.1452H48.9194V13.0663H52.0449V14.5865H48.9194V16.8429H52.2785V18.375Z" fill="#4BAD3B"/>
<path d="M39.3031 18.375L37.108 11.5103H37.0519C37.0602 11.6738 37.0727 11.9212 37.0893 12.2524C37.1101 12.5796 37.1288 12.9287 37.1454 13.2998C37.162 13.6708 37.1704 14.006 37.1704 14.3052V18.375H35.443V9.625H38.0746L40.2322 16.3162H40.2696L42.5582 9.625H45.1898V18.375H43.3876V14.2334C43.3876 13.9581 43.3918 13.6409 43.4001 13.2818C43.4126 12.9227 43.4271 12.5816 43.4438 12.2584C43.4604 11.9312 43.4729 11.6858 43.4812 11.5222H43.425L41.0741 18.375H39.3031Z" fill="#4BAD3B"/>
</svg>
